<svg width="20" height="20" viewBox="0 0 20 20" fill="none" xmlns="http://www.w3.org/2000/svg">
<path d="M8.33331 10.8333H11.6666C11.8877 10.8333 12.0996 10.7455 12.2559 10.5893C12.4122 10.433 12.5 10.221 12.5 10C12.5 9.77899 12.4122 9.56702 12.2559 9.41074C12.0996 9.25446 11.8877 9.16667 11.6666 9.16667H8.33331C8.1123 9.16667 7.90034 9.25446 7.74406 9.41074C7.58778 9.56702 7.49998 9.77899 7.49998 10C7.49998 10.221 7.58778 10.433 7.74406 10.5893C7.90034 10.7455 8.1123 10.8333 8.33331 10.8333ZM15.8333 2.5H4.16664C3.58036 2.50455 3.01432 2.71501 2.56748 3.0946C2.12064 3.47418 1.82143 3.99874 1.72215 4.57658C1.62286 5.15441 1.72982 5.74876 2.02434 6.25572C2.31885 6.76269 2.78217 7.15002 3.33331 7.35V15C3.33331 15.663 3.5967 16.2989 4.06554 16.7678C4.53439 17.2366 5.17027 17.5 5.83331 17.5H14.1666C14.8297 17.5 15.4656 17.2366 15.9344 16.7678C16.4033 16.2989 16.6666 15.663 16.6666 15V7.35C17.2178 7.15002 17.6811 6.76269 17.9756 6.25572C18.2701 5.74876 18.3771 5.15441 18.2778 4.57658C18.1785 3.99874 17.8793 3.47418 17.4325 3.0946C16.9856 2.71501 16.4196 2.50455 15.8333 2.5ZM15 15C15 15.221 14.9122 15.433 14.7559 15.5893C14.5996 15.7455 14.3877 15.8333 14.1666 15.8333H5.83331C5.6123 15.8333 5.40034 15.7455 5.24406 15.5893C5.08778 15.433 4.99998 15.221 4.99998 15V7.5H15V15ZM15.8333 5.83333H4.16664C3.94563 5.83333 3.73367 5.74554 3.57739 5.58926C3.42111 5.43298 3.33331 5.22101 3.33331 5C3.33331 4.77899 3.42111 4.56702 3.57739 4.41074C3.73367 4.25446 3.94563 4.16667 4.16664 4.16667H15.8333C16.0543 4.16667 16.2663 4.25446 16.4226 4.41074C16.5788 4.56702 16.6666 4.77899 16.6666 5C16.6666 5.22101 16.5788 5.43298 16.4226 5.58926C16.2663 5.74554 16.0543 5.83333 15.8333 5.83333Z" fill="#440054"/>
</svg>
