<svg width="50" height="50" viewBox="0 0 50 50" fill="none" xmlns="http://www.w3.org/2000/svg">
<path d="M25.625 10.2083C26.4583 9.79167 26.875 8.75 26.6667 7.91667C26.4583 7.08333 25.4167 6.25 24.375 6.25C14.1667 6.45833 6.25 14.7917 6.25 25C6.25 35.4167 14.5833 43.75 25 43.75C32.9167 43.75 39.7917 38.75 42.5 31.4583C42.9167 30.625 42.5 29.5833 41.6667 28.9583C40.8333 28.3333 39.7917 28.5417 39.1667 29.1667C37.0833 31.0417 34.375 32.0833 31.4583 32.0833C25 32.0833 19.5833 26.875 19.5833 20.2083C19.5833 16.25 21.875 12.2917 25.625 10.2083ZM31.4583 36.25C32.5 36.25 33.5417 36.25 34.375 36.0417C31.875 38.3333 28.5417 39.5833 25 39.5833C16.875 39.5833 10.4167 33.125 10.4167 25C10.4167 19.7917 13.3333 15 17.7083 12.5C16.25 14.7917 15.625 17.5 15.625 20.4167C15.4167 29.1667 22.7083 36.25 31.4583 36.25Z" fill="#440054"/>
</svg>
