<svg width="20" height="20" viewBox="0 0 20 20" fill="none" xmlns="http://www.w3.org/2000/svg">
<g clip-path="url(#clip0_41_66)">
<path d="M8.01469 8.09937L6.85045 11.9818C6.75157 12.312 6.84191 12.6703 7.08574 12.9138C7.26396 13.092 7.50352 13.1885 7.74858 13.1885C7.83861 13.1885 7.92924 13.1757 8.01774 13.1488L11.9005 11.9849C12.0491 11.9403 12.1846 11.8597 12.2942 11.7499L19.4127 4.63135C19.5885 4.45557 19.6874 4.21692 19.6874 3.96851C19.6874 3.7201 19.5885 3.48145 19.4127 3.30567L16.6939 0.587159C16.3277 0.220947 15.7344 0.220947 15.3682 0.587159L8.24999 7.70569C8.14012 7.81555 8.05956 7.95044 8.01469 8.09937ZM9.74291 8.86414L16.031 2.57568L17.4239 3.96851L11.1357 10.257L9.14659 10.8533L9.74291 8.86414Z" fill="#440054"/>
<path d="M18.75 9.0625C18.2321 9.0625 17.8125 9.48243 17.8125 10V16.25C17.8125 17.1118 17.1115 17.8125 16.25 17.8125H3.75C2.88849 17.8125 2.1875 17.1118 2.1875 16.25V3.75C2.1875 2.88818 2.88849 2.1875 3.75 2.1875H10C10.5179 2.1875 10.9375 1.76757 10.9375 1.25C10.9375 0.732425 10.5179 0.3125 10 0.3125H3.75C1.85456 0.3125 0.3125 1.85486 0.3125 3.75V16.25C0.3125 18.1451 1.85456 19.6875 3.75 19.6875H16.25C18.1454 19.6875 19.6875 18.1451 19.6875 16.25V10C19.6875 9.48243 19.2679 9.0625 18.75 9.0625Z" fill="#440054"/>
</g>
<defs>
<clipPath id="clip0_41_66">
<rect width="20" height="20" fill="white"/>
</clipPath>
</defs>
</svg>
