<svg width="20" height="20" viewBox="0 0 20 20" fill="none" xmlns="http://www.w3.org/2000/svg">
<path d="M9.69904 1.67393C6.33092 1.83257 3.75015 4.72635 3.75015 8.0753V11.1035L2.64582 13.3251C2.64388 13.3292 2.64198 13.3333 2.64012 13.3373C2.19585 14.2821 2.91503 15.4166 3.95929 15.4166H7.50015C7.50015 16.7899 8.62687 17.9166 10.0001 17.9166C11.3734 17.9166 12.5001 16.7899 12.5001 15.4166H16.0402C17.0845 15.4166 17.8046 14.2824 17.3602 13.3373C17.3583 13.3333 17.3564 13.3292 17.3545 13.3251L16.2501 11.1035V7.91661C16.2501 4.37236 13.2765 1.50551 9.69904 1.67393ZM9.75763 2.9223C12.641 2.78656 15.0001 5.06752 15.0001 7.91661V11.2499C15.0001 11.3465 15.0223 11.4418 15.0653 11.5283L16.229 13.8704C16.3038 14.0308 16.2172 14.1666 16.0402 14.1666H3.95929C3.78224 14.1666 3.69636 14.031 3.77131 13.8704V13.8696L4.93504 11.5283C4.97795 11.4418 5.00023 11.3465 5.00015 11.2499V8.0753C5.00015 5.36674 7.07492 3.04866 9.75763 2.9223ZM8.75015 15.4166H11.2501C11.2501 16.1142 10.6977 16.6666 10.0001 16.6666C9.30259 16.6666 8.75015 16.1142 8.75015 15.4166Z" fill="#440054"/>
</svg>
