<svg width="24" height="24" viewBox="0 0 24 24" fill="none" xmlns="http://www.w3.org/2000/svg">
<path d="M20.71 20.29L17.31 16.9C18.407 15.5025 19.0022 13.7767 19 12C19 10.4178 18.5308 8.87103 17.6518 7.55544C16.7727 6.23985 15.5233 5.21447 14.0615 4.60897C12.5997 4.00347 10.9911 3.84504 9.43928 4.15372C7.88743 4.4624 6.46197 5.22433 5.34315 6.34315C4.22433 7.46197 3.4624 8.88743 3.15372 10.4393C2.84504 11.9911 3.00347 13.5997 3.60897 15.0615C4.21447 16.5233 5.23985 17.7727 6.55544 18.6518C7.87103 19.5308 9.41775 20 11 20C12.7767 20.0022 14.5025 19.407 15.9 18.31L19.29 21.71C19.383 21.8037 19.4936 21.8781 19.6154 21.9289C19.7373 21.9797 19.868 22.0058 20 22.0058C20.132 22.0058 20.2627 21.9797 20.3846 21.9289C20.5064 21.8781 20.617 21.8037 20.71 21.71C20.8037 21.617 20.8781 21.5064 20.9289 21.3846C20.9797 21.2627 21.0058 21.132 21.0058 21C21.0058 20.868 20.9797 20.7373 20.9289 20.6154C20.8781 20.4936 20.8037 20.383 20.71 20.29ZM5 12C5 10.8133 5.3519 9.65328 6.01119 8.66658C6.67047 7.67989 7.60755 6.91085 8.7039 6.45673C9.80026 6.0026 11.0067 5.88378 12.1705 6.11529C13.3344 6.3468 14.4035 6.91825 15.2426 7.75736C16.0818 8.59648 16.6532 9.66558 16.8847 10.8295C17.1162 11.9933 16.9974 13.1997 16.5433 14.2961C16.0892 15.3925 15.3201 16.3295 14.3334 16.9888C13.3467 17.6481 12.1867 18 11 18C9.4087 18 7.88258 17.3679 6.75736 16.2426C5.63214 15.1174 5 13.5913 5 12Z" fill="#440054"/>
</svg>
