<svg width="25" height="25" viewBox="0 0 25 25" fill="none" xmlns="http://www.w3.org/2000/svg">
<path d="M12.5002 15.8853C14.3699 15.8853 15.8856 14.3696 15.8856 12.4999C15.8856 10.6302 14.3699 9.1145 12.5002 9.1145C10.6304 9.1145 9.11475 10.6302 9.11475 12.4999C9.11475 14.3696 10.6304 15.8853 12.5002 15.8853Z" stroke="#440054" stroke-width="1.55"/>
<path d="M16.0417 18.5937C16.6667 18.2291 17.5 18.177 18.1771 18.4895L19.5833 19.1145C20.5729 18.0728 21.3542 16.7708 21.7708 15.3124L20.5208 14.427C19.8958 14.0103 19.5833 13.2812 19.5833 12.552C19.5833 11.8228 19.9479 11.0937 20.5208 10.677L21.7708 9.79158C21.3542 8.33325 20.5729 7.08325 19.5833 5.9895L18.1771 6.6145C17.5 6.927 16.7187 6.87492 16.0417 6.51034C15.3646 6.14575 14.9479 5.46867 14.8958 4.7395L14.6875 3.12492C13.9583 2.96867 13.2292 2.8645 12.5 2.8645C11.7708 2.8645 10.9896 2.96867 10.3125 3.12492" stroke="#440054" stroke-width="1.55" stroke-linecap="round" stroke-linejoin="round"/>
<path d="M9.01042 6.40633C8.38542 6.77091 7.55208 6.823 6.875 6.5105L5.46875 5.8855C4.47917 6.92716 3.69792 8.22925 3.28125 9.68758L4.53125 10.573C5.15625 10.9897 5.46875 11.7188 5.46875 12.448C5.46875 13.1772 5.10417 13.9063 4.53125 14.323L3.28125 15.2084C3.69792 16.6667 4.47917 17.9167 5.46875 19.0105L6.875 18.3855C7.55208 18.073 8.33333 18.1251 9.01042 18.4897C9.6875 18.8542 10.1042 19.5313 10.1562 20.2605L10.3125 21.7709C11.0417 21.9272 11.7708 22.0313 12.5 22.0313C13.2292 22.0313 14.0104 21.9272 14.6875 21.7709" stroke="#440054" stroke-width="1.55" stroke-linecap="round" stroke-linejoin="round"/>
</svg>
